<svg id="Layer_3" data-name="Layer 3" xmlns="http://www.w3.org/2000/svg" xmlns:xlink="http://www.w3.org/1999/xlink" viewBox="0 0 290.6 287.83"><defs><style>.cls-1{fill:url(#linear-gradient);}.cls-2{fill:#754d25;}.cls-3,.cls-4{fill:none;stroke:#fff;stroke-miterlimit:10;}.cls-3{stroke-width:2px;}.cls-4{stroke-width:4px;}</style><linearGradient id="linear-gradient" x1="150.92" y1="258.69" x2="143.48" y2="128.91" gradientUnits="userSpaceOnUse"><stop offset="0.02" stop-color="#c59b6c"/><stop offset="0.37" stop-color="#c3996a"/><stop offset="0.55" stop-color="#bb9163"/><stop offset="0.68" stop-color="#ae8558"/><stop offset="0.79" stop-color="#9c7247"/><stop offset="0.89" stop-color="#845b32"/><stop offset="0.93" stop-color="#774e26"/></linearGradient></defs><g id="Layer_5" data-name="Layer 5"><path class="cls-1" d="M80,155.92l49.16,82.91h36.05l44.79-84Z"/></g><g id="Layer_4" data-name="Layer 4"><path class="cls-2" d="M112,46.83C94.89,58,88.58,74.46,85,83.83a92,92,0,0,0-6,30,35.26,35.26,0,0,0-13,17c-2.45,7.15-5.15,23.26,5,30,6.89,4.58,17.45,3.35,26-3,.38,10.29,4.62,17,8,17,3.06,0,6.55-5.51,8-13,3.37,2.45,15.51,10.63,32,9a45.61,45.61,0,0,0,20-7c-.3,14.37,2.32,25,7,26,4.24.88,9.69-6.28,12-11a25.72,25.72,0,0,0,2-16c12.11,4.67,25.21,2.28,33-6,7.42-7.89,7.19-18.1,7-21-1-15.87-14.67-24.22-16-25,.42-7.25.44-25.29-11-43-3.1-4.79-19.43-28.75-49-31C131.36,35.41,117.32,43.36,112,46.83Z"/></g><g id="Layer_6" data-name="Layer 6"><path class="cls-3" d="M134.56,106.59c0,12.84,6.21,23.24,13.89,23.24"/><path class="cls-3" d="M192.46,101.23c.39-9.79-5.92-18-14.1-18.39"/><path class="cls-3" d="M162.35,106.59c0,12.84-6.22,23.24-13.9,23.24"/><path class="cls-3" d="M162.84,99.86c.39-9.79,7.33-17.39,15.52-17"/><path class="cls-3" d="M133.46,101.23c.4-9.79-5.91-18-14.1-18.39"/><path class="cls-3" d="M103.84,99.86c.4-9.79,7.34-17.39,15.52-17"/><line class="cls-3" x1="133.93" y1="107.14" x2="162.98" y2="107.14"/><path class="cls-4" d="M94.12,91.68c0-19,13.36-34.41,29.88-34.41"/></g></svg>