<svg id="Layer_3" data-name="Layer 3" xmlns="http://www.w3.org/2000/svg" xmlns:xlink="http://www.w3.org/1999/xlink" viewBox="0 0 290.6 287.83"><defs><style>.cls-1{fill:url(#linear-gradient);}.cls-2{fill:#f6e6d5;}.cls-3,.cls-4{fill:none;stroke-miterlimit:10;}.cls-3{stroke:#000;stroke-width:2px;}.cls-4{stroke:#fff;stroke-width:4px;}</style><linearGradient id="linear-gradient" x1="150.92" y1="257.69" x2="143.48" y2="127.91" gradientUnits="userSpaceOnUse"><stop offset="0.02" stop-color="#c59b6c"/><stop offset="0.37" stop-color="#c3996a"/><stop offset="0.55" stop-color="#bb9163"/><stop offset="0.68" stop-color="#ae8558"/><stop offset="0.79" stop-color="#9c7247"/><stop offset="0.89" stop-color="#845b32"/><stop offset="0.93" stop-color="#774e26"/></linearGradient></defs><g id="Layer_5" data-name="Layer 5"><path class="cls-1" d="M80,154.92l49.16,82.91h36.05l44.79-84Z"/></g><g id="Layer_4" data-name="Layer 4"><path class="cls-2" d="M112,45.83C94.89,57,88.58,73.46,85,82.83a92,92,0,0,0-6,30,35.26,35.26,0,0,0-13,17c-2.45,7.15-5.15,23.26,5,30,6.89,4.58,17.45,3.35,26-3,.38,10.29,4.62,17,8,17,3.06,0,6.55-5.51,8-13,3.37,2.45,15.51,10.63,32,9a45.61,45.61,0,0,0,20-7c-.3,14.37,2.32,25,7,26,4.24.88,9.69-6.28,12-11a25.72,25.72,0,0,0,2-16c12.11,4.67,25.21,2.28,33-6,7.42-7.89,7.19-18.1,7-21-1-15.87-14.67-24.22-16-25,.42-7.25.44-25.29-11-43-3.1-4.79-19.43-28.75-49-31C131.36,34.41,117.32,42.36,112,45.83Z"/></g><g id="Layer_6" data-name="Layer 6"><path class="cls-3" d="M158.06,128.83c.3-6.18-5.52-11.25-13-11.34"/><path class="cls-3" d="M157.09,95.17c-.39,9.55,5.77,17.57,13.76,17.94"/><path class="cls-3" d="M130.94,128.51c.3-6.18,6.61-11.11,14.1-11"/><path class="cls-3" d="M186,96.5c-.38,9.55-7.16,17-15.15,16.61"/><path class="cls-3" d="M184,90.69c-9.54-.53-16.86-7.41-16.37-15.4"/><path class="cls-3" d="M114.82,87.6c9.55,0,17.27-6.42,17.24-14.42"/><path class="cls-3" d="M103.86,94.29c-.38,9.55,5.78,17.58,13.77,17.95"/><path class="cls-3" d="M132.77,95.63c-.38,9.55-7.15,17-15.14,16.61"/><path class="cls-4" d="M94,93.85c0-21,14.76-38,33-38"/></g></svg>